HIERARCHY
ROOT Hips
{
  OFFSET 40.9192 92.6879 18.85
  CHANNELS 6 Xposition Yposition Zposition Zrotation Xrotation Yrotation
  JOINT LeftUpLeg
  {
    OFFSET 8.64259 1.95398 -2.38835
    CHANNELS 3 Zrotation Xrotation Yrotation
    JOINT LeftLeg
    {
      OFFSET 43.7702 0 0
      CHANNELS 3 Zrotation Xrotation Yrotation
      JOINT LeftFoot
      {
        OFFSET 40.6238 0 0
        CHANNELS 3 Zrotation Xrotation Yrotation
        JOINT LeftToeBase
        {
          OFFSET 12.7242 0 0
          CHANNELS 3 Zrotation Xrotation Yrotation
          End Site
          {
            OFFSET 0 0 0
          }
        }
      }
    }
  }
  JOINT RightUpLeg
  {
    OFFSET -8.2249 1.95398 -2.59336
    CHANNELS 3 Zrotation Xrotation Yrotation
    JOINT RightLeg
    {
      OFFSET 43.5653 0 0
      CHANNELS 3 Zrotation Xrotation Yrotation
      JOINT RightFoot
      {
        OFFSET 40.6238 0 0
        CHANNELS 3 Zrotation Xrotation Yrotation
        JOINT RightToeBase
        {
          OFFSET 12.7242 0 0
          CHANNELS 3 Zrotation Xrotation Yrotation
          End Site
          {
            OFFSET 0 0 0
          }
        }
      }
    }
  }
  JOINT Spine
  {
    OFFSET 0.165834 0.87714 6.61349
    CHANNELS 3 Zrotation Xrotation Yrotation
    JOINT Spine1
    {
      OFFSET 7.38963 1.71661e-005 0
      CHANNELS 3 Zrotation Xrotation Yrotation
      JOINT Spine2
      {
        OFFSET 11.9445 1.14441e-005 0
        CHANNELS 3 Zrotation Xrotation Yrotation
        JOINT Spine3
        {
          OFFSET 14.7254 4.19617e-005 0
          CHANNELS 3 Zrotation Xrotation Yrotation
          JOINT Spine4
          {
            OFFSET 10.9679 0 0
            CHANNELS 3 Zrotation Xrotation Yrotation
            JOINT RightShoulder
            {
              OFFSET 2.46616 -1.6653 3.69651
              CHANNELS 3 Zrotation Xrotation Yrotation
              JOINT RightArm
              {
                OFFSET 13.0012 0 0
                CHANNELS 3 Zrotation Xrotation Yrotation
                JOINT RightForeArm
                {
                  OFFSET 28.7848 1.52588e-005 0
                  CHANNELS 3 Zrotation Xrotation Yrotation
                  JOINT RightHand
                  {
                    OFFSET 26.5688 1.52588e-005 0
                    CHANNELS 3 Zrotation Xrotation Yrotation
                    End Site
                    {
                      OFFSET 0 0 0
                    }
                  }
                }
              }
            }
            JOINT LeftShoulder
            {
              OFFSET 2.38034 -1.29275 -3.7523
              CHANNELS 3 Zrotation Xrotation Yrotation
              JOINT LeftArm
              {
                OFFSET 16.3182 6.10351e-005 0
                CHANNELS 3 Zrotation Xrotation Yrotation
                JOINT LeftForeArm
                {
                  OFFSET 27.0901 0 0
                  CHANNELS 3 Zrotation Xrotation Yrotation
                  JOINT LeftHand
                  {
                    OFFSET 24.5451 1.52588e-005 0
                    CHANNELS 3 Zrotation Xrotation Yrotation
                    End Site
                    {
                      OFFSET 0 0 0
                    }
                  }
                }
              }
            }
            JOINT Neck
            {
              OFFSET 5.0226 -0.0266342 0
              CHANNELS 3 Zrotation Xrotation Yrotation
              JOINT Head
              {
                OFFSET 6.69363 2.86102e-005 0
                CHANNELS 3 Zrotation Xrotation Yrotation
                End Site
                {
                  OFFSET 0 0 0
                }
              }
            }
          }
        }
      }
    }
  }
}
MOTION
Frames:	13
Frame Time:	0.0416667
-50.7037 97.1259 47.4715 -124.795 -85.3083 -124.275 -169.528 2.18817 94.8956 -11.8085 9.25201 -2.02826 62.2999 1.22875 2.42984 31.0839 1.94567 -1.89431 172.494 1.86073 86.6533 -11.4013 -10.9363 -1.80749 63.9863 -2.6515 -1.47182 30.0524 0.229264 -3.10833 0.158485 7.16527 -90.042 12.5435 0.294877 -0.120924 0.872611 0.289397 -0.134298 -21.6628 0.31677 -0.0232865 -1.65019 0.316762 -0.0232968 93.3781 -45.8747 -96.3636 31.5566 -8.51767 0.971563 -3.85014 -24.3148 -39.2047 -6.80792 -0.890979 5.09966 -97.1973 -49.5179 67.9228 -23.3573 16.1564 0.283367 1.67668 12.9716 -29.3087 11.9254 0.99197 4.24477 11.1745 1.7177 2.7011 -3.72138 1.10548 -1.28793 
-50.6839 97.1597 47.5151 -123.823 -85.3284 -123.165 -169.412 2.36562 95.0256 -11.9467 8.33858 -2.09563 62.3335 1.10476 2.04623 31.704 2.47694 -2.92719 172.327 1.93183 86.716 -11.2647 -10.3948 -1.49434 63.4023 -2.42174 -1.34374 31.0547 0.23644 -2.76076 0.161595 7.1534 -90.0433 12.5673 0.300416 -0.121024 0.896323 0.294786 -0.134004 -21.6391 0.323011 -0.0260806 -1.62645 0.323015 -0.0260884 93.3847 -46.0813 -96.3151 31.6328 -8.43334 1.01482 -4.42364 -25.0009 -39.1496 -7.05557 -0.91277 5.04506 -97.1779 -49.4626 67.9325 -23.3386 16.2627 0.191576 1.31745 12.6807 -28.7871 11.3167 0.982164 4.54697 11.7965 1.47019 1.85665 -4.69362 1.04328 0.372302 
-50.6927 97.1688 47.5158 -123.589 -85.4033 -122.933 -169.193 2.33185 95.1354 -11.7696 8.29518 -2.28646 62.8286 1.69692 1.68908 30.6761 1.69203 -2.68863 172.398 1.90968 86.758 -11.1658 -10.2418 -1.55035 63.4729 -2.44998 -1.35874 30.7943 0.222147 -2.59375 0.14339 7.15957 -90.0336 12.5549 0.268883 -0.0982958 0.883935 0.264302 -0.110044 -21.6514 0.285998 -0.0129399 -1.6388 0.285992 -0.0129492 93.3025 -46.2629 -96.4141 31.4279 -8.35485 0.907095 -4.40069 -25.2401 -39.2626 -6.93087 -0.955485 5.76853 -97.0091 -49.4523 68.1775 -23.4375 16.2915 0.13717 1.41138 12.8711 -28.9349 11.8442 1.06249 4.85686 11.9591 1.5586 1.62204 -4.8117 1.17679 0.441785 
-50.6827 97.181 47.4932 -122.799 -85.3297 -122.146 -169.191 2.31754 95.1315 -11.7475 8.43323 -2.30667 62.8151 1.77754 1.80401 30.5006 1.55699 -2.64416 172.412 2.01103 86.7472 -11.2349 -10.2856 -1.5642 63.3374 -2.3891 -1.32285 31.0294 0.221563 -2.43589 0.148814 7.16599 -90.0407 12.5421 0.276281 -0.113415 0.871137 0.271024 -0.125463 -21.6643 0.297597 -0.0251294 -1.65161 0.297598 -0.0251344 93.0947 -46.0044 -96.7991 31.6608 -8.39481 1.08844 -4.41529 -24.6873 -39.3508 -6.74036 -0.913343 5.40695 -97.0527 -49.518 68.135 -23.3762 16.28 0.195071 1.39853 12.7432 -29.0186 11.7747 1.04609 4.77031 11.8502 1.55421 1.70461 -4.87714 1.15636 0.599708 
-50.7533 97.1434 47.4928 -122.605 -85.3638 -121.934 -169.409 2.43067 95.0852 -11.8577 8.08552 -2.07286 62.3892 1.17324 1.67031 31.3677 2.21612 -2.77024 172.413 2.10328 86.8043 -11.4135 -10.2372 -1.50683 63.5517 -2.44525 -1.35171 30.7693 0.224796 -2.66473 0.160601 7.17011 -90.0537 12.5338 0.293518 -0.141324 0.862933 0.28701 -0.154114 -21.6725 0.322421 -0.0465725 -1.65984 0.322407 -0.046596 93.2897 -46.2128 -96.4443 31.1071 -8.72301 0.811096 -3.49757 -24.2865 -38.7991 -6.97594 -0.903238 5.13354 -97.2437 -49.5775 67.8739 -23.1158 16.2627 0.301522 1.24466 12.5153 -28.9194 11.7548 1.01128 4.50437 12.0693 1.58193 0.951174 -5.33997 1.33691 1.65416 
-51.1387 97.1441 47.4941 -120.976 -85.2372 -120.266 -169.269 2.30126 95.3999 -11.4333 8.16985 -2.05852 61.8638 0.924264 1.65001 32.2498 2.92195 -3.69085 172.419 2.26658 87.0048 -11.6869 -10.4702 -1.34653 63.6777 -2.44938 -1.34714 30.7199 0.228617 -2.77426 0.172745 7.15982 -90.0923 12.5545 0.299241 -0.21919 0.883571 0.289299 -0.232154 -21.6518 0.351277 -0.119124 -1.63916 0.351277 -0.11912 93.1226 -45.9824 -96.758 31.2732 -8.45312 1.03478 -4.08685 -24.9523 -39.2742 -7.02777 -0.941307 5.52754 -97.3103 -49.6843 67.8119 -23.0116 16.0999 0.541897 1.29399 12.5469 -28.8523 11.8403 1.00062 4.36686 12.0519 1.57574 1.44359 -5.63205 1.22265 1.26259 
-51.8431 97.2045 47.4709 -121.638 -85.2673 -120.642 -168.943 2.34 96.1099 -11.2765 8.674 -1.99405 62.0321 1.34005 1.69193 31.4042 2.27879 -3.3531 172.368 1.9415 87.4919 -11.2671 -10.3967 -0.904759 63.8222 -2.55229 -1.41557 30.1054 0.201436 -2.55643 0.169757 7.17314 -90.147 12.5281 0.267293 -0.324391 0.857182 0.252765 -0.335848 -21.678 0.352426 -0.229062 -1.66539 0.352433 -0.229054 93.1043 -46.0352 -96.7776 31.2702 -8.39821 0.989883 -4.14591 -24.6526 -39.0988 -6.48007 -0.907092 5.61007 -97.0277 -49.5223 68.1734 -22.8623 16.0476 0.419735 1.32385 12.6228 -28.8441 11.5509 1.0374 4.84328 12.2876 1.68275 1.54897 -5.67269 1.30308 0.90619 
-52.914 97.233 47.4677 -123.807 -85.5124 -122.754 -168.83 2.30752 96.7076 -10.7955 9.75813 -1.77278 61.5712 1.52267 2.65247 31.0197 2.00541 -3.52998 172.514 1.62623 88.0669 -11.1023 -9.96722 -0.634951 64.082 -2.60723 -1.43952 29.8534 0.169982 -2.10781 0.168025 7.18902 -90.2076 12.4961 0.235064 -0.441814 0.825056 0.215389 -0.451732 -21.7099 0.356969 -0.350748 -1.69721 0.356976 -0.350743 93.1351 -45.8826 -96.7571 31.3576 -8.36215 0.842964 -4.49764 -25.0302 -39.0421 -6.5541 -0.892889 5.2319 -97.3168 -49.6955 67.8057 -22.3754 16.1 0.223611 1.15176 12.6879 -28.5854 12.1266 1.07316 4.76118 12.1318 1.58986 1.91216 -5.36266 1.1387 0.633196 
-54.1479 97.1887 47.5343 -127.855 -86.1039 -127.005 -168.918 2.31334 97.091 -10.1851 9.75469 -1.40049 60.2932 0.627953 1.51802 32.7598 3.25502 -2.70763 172.253 1.56373 88.3314 -11.255 -9.38541 -0.0415618 64.8151 -2.75801 -1.50836 28.9406 0.0945851 -1.37303 0.113419 7.18079 -90.2536 12.5123 0.104633 -0.518719 0.841215 0.0816981 -0.522832 -21.6933 0.255688 -0.463298 -1.68064 0.255688 -0.463301 93.0012 -46.0714 -96.9376 31.1651 -8.31257 0.944725 -4.22529 -24.858 -39.0241 -7.63517 -1.01837 5.9865 -97.4074 -49.6496 67.6578 -22.6193 16.04 0.121706 1.30129 12.7892 -28.6642 11.9934 1.0531 4.68587 12.1142 1.60961 1.00603 -5.43734 1.34864 1.99104 
-55.5415 97.1211 47.5178 -132.703 -86.4136 -131.837 -168.948 2.13065 97.7615 -9.41164 10.5078 -0.913841 59.3677 0.274552 1.48378 33.5615 3.83422 -2.07511 172.119 1.62471 88.8646 -11.8625 -9.5166 0.573074 65.3071 -2.82147 -1.5268 28.5483 0.119187 -1.96956 0.0782595 7.20136 -90.3402 12.4706 -0.00628208 -0.678564 0.79948 -0.0361466 -0.677633 -21.7343 0.197938 -0.64908 -1.72169 0.197929 -0.649093 93.1308 -46.271 -96.6899 30.7248 -8.1749 0.562969 -4.4596 -25.5275 -38.9029 -6.09178 -0.955498 6.65383 -97.0256 -49.2668 68.0919 -23.5235 16.5252 -0.345792 1.20291 12.75 -28.8482 11.8833 1.01942 4.48846 11.727 1.78004 0.772378 -4.65741 1.58299 1.44807 
-57.0033 97.0561 47.49 -131.225 -86.5557 -130.618 -169.133 2.21021 98.1182 -8.81305 9.93782 -0.452283 58.1819 -0.603354 0.964457 34.0526 4.18064 -1.06251 171.92 1.79832 89.1824 -12.1161 -9.91416 1.11129 66.11 -3.07243 -1.65327 27.7468 0.0721916 -1.69289 0.0521945 7.21184 -90.4135 12.4491 -0.0929031 -0.815299 0.777954 -0.128692 -0.810424 -21.7552 0.156417 -0.805521 -1.74256 0.156412 -0.805534 92.9545 -46.2028 -96.9878 30.6617 -8.05827 0.361188 -4.83834 -26.0276 -39.2113 -6.07038 -0.966791 6.76513 -97.2239 -49.3067 67.813 -24.0043 16.9792 -0.55974 1.13191 12.677 -29.1053 11.9151 1.02271 4.49288 11.9903 1.71008 0.861291 -5.12409 1.48789 0.464424 
-58.4037 96.9462 47.4175 -132.899 -86.857 -132.312 -169.254 2.26104 98.6758 -8.14309 10.4364 0.0395486 57.4884 -0.823149 0.496801 33.8291 3.9632 0.456814 171.876 1.96765 89.7333 -12.4773 -10.0402 1.64574 66.8384 -3.24107 -1.72595 27.0112 0.0415885 -1.62768 0.00246647 7.21046 -90.513 12.4509 -0.239021 -0.996987 0.77956 -0.282667 -0.985508 -21.7525 0.0716484 -1.02272 -1.73988 0.0716472 -1.02273 92.8428 -46.4722 -97.115 30.1446 -8.48209 0.0482645 -4.19748 -26.1103 -38.8362 -6.21919 -0.947745 6.3021 -97.4224 -49.2121 67.4897 -24.4248 17.4107 -0.646574 0.942676 12.6295 -29.2627 12.8141 1.09214 4.48724 12.1685 1.53341 0.55716 -5.19196 1.37896 0.65232 
-59.53 96.9207 47.3186 -143.643 -87.9871 -143.23 -169.272 3.53116 98.9868 -8.50431 11.6501 0.0501197 56.688 -1.33658 0.833131 33.9385 4.04441 0.661185 171.59 2.24709 90.0148 -12.252 -9.6679 2.28408 66.9502 -3.20983 -1.7001 26.721 0.0161058 -1.44713 -0.130972 7.17287 -90.606 12.5239 -0.548734 -1.14696 0.852633 -0.598674 -1.12171 -21.6786 -0.178683 -1.25882 -1.66598 -0.178695 -1.25884 92.9176 -46.5181 -96.9861 29.686 -8.69402 -0.0572776 -4.37462 -26.866 -39.0173 -6.37434 -0.980037 6.49754 -97.1114 -48.653 67.7613 -25.0353 18.0166 -1.3173 0.70815 12.6676 -29.2121 12.6416 1.01541 4.0079 12.5358 1.35877 -0.134958 -5.38448 1.35578 1.09547 
